<svg xmlns="http://www.w3.org/2000/svg" xmlns:xlink="http://www.w3.org/1999/xlink" version="1.1" width="1571.9569999999999" height="984.3234513911391"><g id="Context Diagram"><g id="Seeks the help of a Law Firm for their Medical dispute"><polyline points="288,284.3234513911391 552,284.3234513911391" fill="none" stroke-width="1" stroke="#adb3b3" opacity="1"></polyline></g><g id="Seeks the help of a Law Firm for their Medical dispute"><rect width="133.212" height="54.2" x="353.394" y="257.22345139113906" rx="4" ry="4" fill-opacity="0.8" fill="#323435" stroke-opacity="1" stroke-width="1" stroke="#434647" opacity="0.8"></rect><g opacity="1" fill="#e5e7e8"><text font-family="IBM Plex Sans Medium, Arial, sans-serif" font-size="14" text-anchor="middle" x="420" y="273.5734513911391"><tspan dy="0" x="420">Seeks the help of a</tspan></text><text font-family="IBM Plex Sans Medium, Arial, sans-serif" font-size="14" text-anchor="middle" x="420" y="289.5734513911391"><tspan dy="0" x="420">Law Firm for their</tspan></text><text font-family="IBM Plex Sans Medium, Arial, sans-serif" font-size="14" text-anchor="middle" x="420" y="305.5734513911391"><tspan dy="0" x="420">Medical dispute</tspan></text></g></g><g id="Create a record order / summary order"><polyline points="808,284.3234513911391 903.26,283.7434513911391 1010.1800000000001,280.7434513911391 1096,280.3234513911391" fill="none" stroke-width="1" stroke="#adb3b3" opacity="1"></polyline></g><g id="Create a record order / summary order"><rect width="119.058" height="54.2" x="892.4724880343067" y="255.2758451051036" rx="4" ry="4" fill-opacity="0.8" fill="#323435" stroke-opacity="1" stroke-width="1" stroke="#434647" opacity="0.8"></rect><g opacity="1" fill="#e5e7e8"><text font-family="IBM Plex Sans Medium, Arial, sans-serif" font-size="14" text-anchor="middle" x="952.0014880343067" y="271.6258451051036"><tspan dy="0" x="952.0014880343067">Create a record</tspan></text><text font-family="IBM Plex Sans Medium, Arial, sans-serif" font-size="14" text-anchor="middle" x="952.0014880343067" y="287.6258451051036"><tspan dy="0" x="952.0014880343067">order / summary</tspan></text><text font-family="IBM Plex Sans Medium, Arial, sans-serif" font-size="14" text-anchor="middle" x="952.0014880343067" y="303.6258451051036"><tspan dy="0" x="952.0014880343067">order</tspan></text></g></g><g id="Contacts Medical Record Provider"><polyline points="1224,344.3234513911391 1224,504.3234513911391" fill="none" stroke-width="1" stroke="#adb3b3" opacity="1"></polyline></g><g id="Contacts Medical Record Provider"><rect width="122.096" height="38.2" x="1162.952" y="405.22345139113906" rx="4" ry="4" fill-opacity="0.8" fill="#323435" stroke-opacity="1" stroke-width="1" stroke="#434647" opacity="0.8"></rect><g opacity="1" fill="#e5e7e8"><text font-family="IBM Plex Sans Medium, Arial, sans-serif" font-size="14" text-anchor="middle" x="1224" y="421.5734513911391"><tspan dy="0" x="1224">Contacts Medical</tspan></text><text font-family="IBM Plex Sans Medium, Arial, sans-serif" font-size="14" text-anchor="middle" x="1224" y="437.5734513911391"><tspan dy="0" x="1224">Record Provider</tspan></text></g></g><g id="Connection"><polyline points="1224,632.3234513911391 1224,824.3234513911391" fill="none" stroke-width="1" stroke="#adb3b3" opacity="1"></polyline></g><g id="Medical Record is sent to RecordSync"><polyline points="1352,888.3234513911391 1381.56,887.9334513911391 1392.19,884.873451391139 1402.16,878.9434513911391 1411.46,870.3234513911391 1420.1,859.1934513911391 1428.07,845.743451391139 1438.78,821.6234513911392 1445.09,803.1834513911391 1453.31,772.4434513911391 1457.97,750.1834513911391 1463.7,714.5734513911391 1466.69,689.6334513911391 1469.92,650.9034513911391 1471.25,624.4534513911391 1472,584.3234513911391 1471.25,544.1934513911391 1469.92,517.743451391139 1466.69,479.0134513911391 1463.7,454.0734513911391 1457.97,418.4634513911391 1453.31,396.2034513911391 1445.09,365.4634513911391 1438.78,347.0234513911391 1428.07,322.9034513911391 1420.1,309.4534513911391 1411.46,298.3234513911391 1402.16,289.7034513911391 1392.19,283.7734513911391 1381.56,280.7134513911391 1352,280.3234513911391" fill="none" stroke-width="1" stroke="#adb3b3" opacity="1"></polyline></g><g id="Medical Record is sent to RecordSync"><rect width="135.91400000000002" height="38.2" x="1404.043" y="565.2234513911391" rx="4" ry="4" fill-opacity="0.8" fill="#323435" stroke-opacity="1" stroke-width="1" stroke="#434647" opacity="0.8"></rect><g opacity="1" fill="#e5e7e8"><text font-family="IBM Plex Sans Medium, Arial, sans-serif" font-size="14" text-anchor="middle" x="1472" y="581.5734513911391"><tspan dy="0" x="1472">Medical Record is</tspan></text><text font-family="IBM Plex Sans Medium, Arial, sans-serif" font-size="14" text-anchor="middle" x="1472" y="597.5734513911391"><tspan dy="0" x="1472">sent to RecordSync</tspan></text></g></g><g id="RecordSync will send the documents on Law Firm."><polyline points="1224,216.3234513911391 1223.59,185.9134513911391 1220.42,173.5034513911391 1214.26,161.6534513911391 1205.34,150.3834513911391 1193.87,139.70345139113908 1180.04,129.64345139113908 1164.07,120.21345139113907 1146.17,111.44345139113909 1126.54,103.33345139113908 1105.41,95.92345139113908 1071.32,86.13345139113909 1047.31,80.51345139113909 1009.8900000000001,73.51345139113909 984.31,69.8134513911391 945.52,65.77345139113908 906.8499999999999,63.60345139113906 881.49,63.213451391139074 844.5799999999999,64.27345139113908 821.04,66.10345139113906 787.8499999999999,70.57345139113909 767.44,74.73345139113911 748.6500000000001,79.86345139113911 731.69,85.9734513911391 716.77,93.08345139113908 704.09,101.21345139113907 693.86,110.39345139113908 686.3,120.6234513911391 681.61,131.92345139113908 680.41,137.98345139113908 680,168.3234513911391" fill="none" stroke-width="1" stroke="#adb3b3" opacity="1"></polyline></g><g id="RecordSync will send the documents on Law Firm."><rect width="132.31599999999997" height="70.19999999999999" x="892.0988367667608" y="31.999999999999996" rx="4" ry="4" fill-opacity="0.8" fill="#323435" stroke-opacity="1" stroke-width="1" stroke="#434647" opacity="0.8"></rect><g opacity="1" fill="#e5e7e8"><text font-family="IBM Plex Sans Medium, Arial, sans-serif" font-size="14" text-anchor="middle" x="958.2568367667609" y="48.349999999999994"><tspan dy="0" x="958.2568367667609">RecordSync will</tspan></text><text font-family="IBM Plex Sans Medium, Arial, sans-serif" font-size="14" text-anchor="middle" x="958.2568367667608" y="64.35"><tspan dy="0" x="958.2568367667608">send the</tspan></text><text font-family="IBM Plex Sans Medium, Arial, sans-serif" font-size="14" text-anchor="middle" x="958.2568367667608" y="80.35"><tspan dy="0" x="958.2568367667608">documents on Law</tspan></text><text font-family="IBM Plex Sans Medium, Arial, sans-serif" font-size="14" text-anchor="middle" x="958.2568367667608" y="96.35"><tspan dy="0" x="958.2568367667608">Firm.</tspan></text></g></g><a href="https://app.icepanel.io/landscapes/aGZWReWqhJc1gza44sBN/versions/latest/model/objects?object=ln0rbfzckye&amp;focus=ln0rbfzckye" id="RecordSync Website" target="_blank"><rect width="256" height="128" rx="8" ry="8" fill-opacity="0.8" fill="#1f2121" stroke-opacity="1" stroke-width="1" stroke="#434647" opacity="1" x="1096" y="216.3234513911391"></rect><text font-family="IBM Plex Sans Medium, Arial, sans-serif" font-size="24" font-weight="500" text-anchor="middle" fill="#ffffff" opacity="1" x="1224.0000000000002" y="285.3234513911391"><tspan dy="0" x="1224.0000000000002">RecordSync Website</tspan></text><g id="System" opacity="1"><text font-family="Courier New, monospace" font-size="12" text-anchor="middle" fill="#adb3b3" x="1224" y="332.9787248286391"><tspan dy="0" x="1224">System</tspan></text></g></a><a href="https://app.icepanel.io/landscapes/aGZWReWqhJc1gza44sBN/versions/latest/model/objects?object=b0lu5ac8a3a&amp;focus=b0lu5ac8a3a" id="Client" target="_blank"><rect width="56" height="56" rx="8" ry="8" fill-opacity="0.8" fill="#1f2121" stroke-opacity="1" stroke-width="1" stroke="#434647" opacity="1" x="132" y="168.3234513911391"></rect><rect width="256" height="96" rx="8" ry="8" fill-opacity="0.8" fill="#1f2121" stroke-opacity="1" stroke-width="1" stroke="#434647" opacity="1" x="32" y="232.3234513911391"></rect><path d="M160 198.0377371054248C163.7875 198.0377371054248 166.85714285714286 194.96809424828194 166.85714285714286 191.18059424828195C166.85714285714286 187.39309424828195 163.7875 184.3234513911391 160 184.3234513911391C156.2125 184.3234513911391 153.14285714285714 187.39309424828195 153.14285714285714 191.18059424828195C153.14285714285714 194.96809424828194 156.2125 198.0377371054248 160 198.0377371054248ZM164.8 199.7520228197105L163.90535714285716 199.7520228197105C162.71607142857144 200.29845139113908 161.39285714285714 200.60916567685337 160 200.60916567685337C158.60714285714286 200.60916567685337 157.2892857142857 200.29845139113908 156.09464285714284 199.7520228197105L155.2 199.7520228197105C151.225 199.7520228197105 148 202.9770228197105 148 206.95202281971052L148 209.18059424828195C148 210.6002371054248 149.15178571428572 211.75202281971053 150.57142857142856 211.75202281971053L169.42857142857142 211.75202281971053C170.84821428571428 211.75202281971053 172 210.6002371054248 172 209.18059424828195L172 206.95202281971052C172 202.9770228197105 168.775 199.7520228197105 164.8 199.7520228197105Z " fill="#ffffff" opacity="1"></path><text font-family="IBM Plex Sans Medium, Arial, sans-serif" font-size="24" font-weight="500" text-anchor="middle" fill="#ffffff" opacity="1" x="160" y="280.3234513911391"><tspan dy="0" x="160">Client</tspan></text><g id="Actor" opacity="1"><text font-family="Courier New, monospace" font-size="12" text-anchor="middle" fill="#adb3b3" x="160" y="316.9787248286391"><tspan dy="0" x="160">Actor</tspan></text></g></a><a href="https://app.icepanel.io/landscapes/aGZWReWqhJc1gza44sBN/versions/latest/model/objects?object=nxnrgbo7ej&amp;focus=nxnrgbo7ej" id="Law Firm" target="_blank"><rect width="56" height="56" rx="8" ry="8" fill-opacity="0.8" fill="#1f2121" stroke-opacity="1" stroke-width="1" stroke="#434647" opacity="1" x="652" y="168.3234513911391"></rect><rect width="256" height="96" rx="8" ry="8" fill-opacity="0.8" fill="#1f2121" stroke-opacity="1" stroke-width="1" stroke="#434647" opacity="1" x="552" y="232.3234513911391"></rect><path d="M680 198.0377371054248C683.7875 198.0377371054248 686.8571428571429 194.96809424828194 686.8571428571429 191.18059424828195C686.8571428571429 187.39309424828195 683.7875 184.3234513911391 680 184.3234513911391C676.2125 184.3234513911391 673.1428571428571 187.39309424828195 673.1428571428571 191.18059424828195C673.1428571428571 194.96809424828194 676.2125 198.0377371054248 680 198.0377371054248ZM684.8 199.7520228197105L683.9053571428572 199.7520228197105C682.7160714285715 200.29845139113908 681.3928571428571 200.60916567685337 680 200.60916567685337C678.6071428571429 200.60916567685337 677.2892857142857 200.29845139113908 676.0946428571428 199.7520228197105L675.2 199.7520228197105C671.225 199.7520228197105 668 202.9770228197105 668 206.95202281971052L668 209.18059424828195C668 210.6002371054248 669.1517857142857 211.75202281971053 670.5714285714286 211.75202281971053L689.4285714285714 211.75202281971053C690.8482142857142 211.75202281971053 692 210.6002371054248 692 209.18059424828195L692 206.95202281971052C692 202.9770228197105 688.775 199.7520228197105 684.8 199.7520228197105Z " fill="#ffffff" opacity="1"></path><text font-family="IBM Plex Sans Medium, Arial, sans-serif" font-size="24" font-weight="500" text-anchor="middle" fill="#ffffff" opacity="1" x="680" y="280.3234513911391"><tspan dy="0" x="680">Law Firm</tspan></text><g id="Actor" opacity="1"><text font-family="Courier New, monospace" font-size="12" text-anchor="middle" fill="#adb3b3" x="680" y="316.9787248286391"><tspan dy="0" x="680">Actor</tspan></text></g></a><a href="https://app.icepanel.io/landscapes/aGZWReWqhJc1gza44sBN/versions/latest/model/objects?object=cqproobgjhk&amp;focus=cqproobgjhk" id="Medical Facility" target="_blank"><rect width="256" height="128" rx="8" ry="8" fill-opacity="0.8" fill="#1f2121" stroke-opacity="1" stroke-width="1" stroke="#434647" opacity="1" x="1096" y="504.3234513911391"></rect><text font-family="IBM Plex Sans Medium, Arial, sans-serif" font-size="24" font-weight="500" text-anchor="middle" fill="#ffffff" opacity="1" x="1224" y="573.3234513911391"><tspan dy="0" x="1224">Medical Facility</tspan></text><g id="System" opacity="1"><text font-family="Courier New, monospace" font-size="12" text-anchor="middle" fill="#adb3b3" x="1224" y="620.978724828639"><tspan dy="0" x="1224">System</tspan></text></g></a><a href="https://app.icepanel.io/landscapes/aGZWReWqhJc1gza44sBN/versions/latest/model/objects?object=anngq1zo2iw&amp;focus=anngq1zo2iw" id="Medical Record Retrieved" target="_blank"><rect width="256" height="128" rx="8" ry="8" fill-opacity="0.8" fill="#1f2121" stroke-opacity="1" stroke-width="1" stroke="#434647" opacity="1" x="1096" y="824.3234513911391"></rect><text font-family="IBM Plex Sans Medium, Arial, sans-serif" font-size="24" font-weight="500" text-anchor="middle" fill="#ffffff" opacity="1" x="1224.0000000000002" y="880.3234513911391"><tspan dy="0" x="1224.0000000000002">Medical Record</tspan></text><text font-family="IBM Plex Sans Medium, Arial, sans-serif" font-size="24" font-weight="500" text-anchor="middle" fill="#ffffff" opacity="1" x="1224.0000000000002" y="906.3234513911391"><tspan dy="0" x="1224.0000000000002">Retrieved</tspan></text><g id="System" opacity="1"><text font-family="Courier New, monospace" font-size="12" text-anchor="middle" fill="#adb3b3" x="1224" y="940.978724828639"><tspan dy="0" x="1224">System</tspan></text></g></a><g id="Seeks the help of a Law Firm for their Medical dispute"><polygon points="575.2134513911391,181.11 567.2134513911391,197.11 583.2134513911391,197.11 575.2134513911391,181.11" fill="#adb3b3" opacity="1" transform="matrix(6.123233995736766e-17,1,-1,6.123233995736766e-17,733.11,-290.89)"></polygon><circle r="4" fill="#adb3b3" opacity="1" cx="288" cy="284.3234513911391"></circle></g><g id="Create a record order / summary order"><polygon points="1119.3693951736586,177.4588951090367 1111.3693951736586,193.4588951090367 1127.3693951736586,193.4588951090367 1119.3693951736586,177.4588951090367" fill="#adb3b3" opacity="1" transform="matrix(0.004893905504597685,0.999988024772753,-0.999988024772753,0.004893905504597685,1267.978681953722,-839.901006143253)"></polygon><circle r="4" fill="#adb3b3" opacity="1" cx="808" cy="284.3234513911391"></circle></g><g id="Contacts Medical Record Provider"><polygon points="1160,361.89654860886094 1152,377.89654860886094 1168,377.89654860886094 1160,361.89654860886094" fill="#adb3b3" opacity="1" transform="matrix(-1,1.2246467991473532e-16,-1.2246467991473532e-16,-1,2384,866.2199999999998)"></polygon><circle r="4" fill="#adb3b3" opacity="1" cx="1224" cy="344.3234513911391"></circle></g><g id="Connection"><circle r="4" fill="#adb3b3" opacity="1" cx="1224" cy="824.3234513911391"></circle><circle r="4" fill="#adb3b3" opacity="1" cx="1224" cy="632.3234513911391"></circle></g><g id="Medical Record is sent to RecordSync"><polygon points="1265.2135088559405,242.04668851185235 1257.2135088559405,258.0466885118524 1273.2135088559405,258.0466885118524 1265.2135088559405,242.04668851185235" fill="#adb3b3" opacity="1" transform="matrix(0.013192356598785785,-0.9999129770771907,0.9999129770771907,0.013192356598785785,1093.2832273160097,1542.2336914411578)"></polygon><circle r="4" fill="#adb3b3" opacity="1" cx="1352" cy="888.3234513911391"></circle></g><g id="RecordSync will send the documents on Law Firm."><polygon points="615.2568618368852,26.335442995838108 607.2568618368852,42.33544299583811 623.2568618368852,42.33544299583811 615.2568618368852,26.335442995838108" fill="#adb3b3" opacity="1" transform="matrix(-0.9999087049799531,-0.013512279797025028,0.013512279797025028,-0.9999087049799531,1294.8448400750112,202.9700129563605)"></polygon><circle r="4" fill="#adb3b3" opacity="1" cx="1224" cy="216.3234513911391"></circle></g></g></svg>