<?xml version="1.0" encoding="UTF-8"?>
<svg xmlns="http://www.w3.org/2000/svg" viewBox="0 0 165.07 98.35">
  <g id="Layer_1" data-name="Layer 1"/>
  <g id="Layer_2" data-name="Layer 2">
    <g id="Layer_1-2" data-name="Layer 1">
      <polygon points="137.39 98.35 123.14 74.31 136.76 51.37 165.07 98.14 137.39 98.35" style="fill: #20355a;"/>
      <polygon points="137.39 .14 123.14 24.18 136.76 47.12 165.07 .35 137.39 .14" style="fill: #20355a;"/>
      <polygon points="130.91 49.16 101.92 98.24 74.27 98.24 103.59 49.22 87.79 22.84 86.56 20.77 86.54 20.74 74.27 .25 101.92 .25 130.91 49.16" style="fill: #20355a;"/>
      <path d="M83.76,71.51l-16.81-9.66c-3.08,6.17-9.79,10.06-17.84,10.06-13.28,0-22.27-9.79-22.27-22.81s8.99-22.81,22.27-22.81c7.92,0,14.76,3.89,17.84,9.93l16.64-9.56-2.29-3.83-1.23-2.07-.02-.03-9.53-15.92C64.07,1.72,56.79,0,49.11,0,20.66,0,0,21.33,0,49.11s20.66,49.11,49.11,49.11c7.79,0,15.15-1.77,21.65-4.94l13.01-21.75Z" style="fill: #20355a;"/>
    </g>
  </g>
</svg>