<?xml version="1.0" encoding="utf-8"?>
<!-- Generator: Adobe Illustrator 24.0.3, SVG Export Plug-In . SVG Version: 6.00 Build 0)  -->
<svg version="1.1" id="Layer_1" xmlns="http://www.w3.org/2000/svg" xmlns:xlink="http://www.w3.org/1999/xlink" x="0px" y="0px"
	 viewBox="0 0 300 300" style="enable-background:new 0 0 300 300;" xml:space="preserve">
<style type="text/css">
	.st0{fill:#0258A1;}
	.st1{fill:#373636;}
</style>
<g>
	<path class="st0" d="M280.4,29.5c1,0.2,2,0.4,3.1,0.5c4.6,1,9.2,1.6,13.7,3.3c0.7,0.3,1.5,0.5,2.4,1.2c-2.3,0.1-4.4,0.2-6.4,0.4
		c-2.8,0.1-5.5,0.3-8.3,0.4c-0.5,0-1.1-0.1-1.4,0.4c-0.3,0-0.5,0.1-0.8,0.1c-1.3,0-2.6-0.2-4,0c-4.3,0.4-8.6,0.9-12.8,1.7
		c-5.6,1-11.1,2.2-16.6,3.9c-0.6,0-1.2,0.2-1.7,0.5c-0.8,0.1-1.5,0.3-2.3,0.6c-0.5,0-0.9,0.1-1.3,0.5c-0.5-0.1-0.9,0.1-1.2,0.3
		c-0.5,0.1-1.1,0.2-1.6,0.4c-8.4,2.8-16.5,6.1-24.4,10.1c-12.9,6.5-24.5,14.7-34.8,24.9c-9.7,9.7-17.6,20.7-23.6,33
		c-4.8,10-8.7,20.3-12.2,30.8c-1.2,3.7-2.5,7.4-3.8,11.1c-1.9,5.7-4.2,11.3-6.3,16.9c-0.3,0.3-0.5,0.7-0.5,1.2
		c-0.5,0.9-0.9,1.8-1.2,2.8c-0.5,0.8-0.9,1.6-1.1,2.5c-0.7,1.2-1.4,2.6-1.9,3.9c-0.2,0.4-0.4,0.7-0.6,1.1c-1,1.9-2,3.8-2.9,5.7
		c-0.9,1.6-1.9,3.1-2.8,4.7c-10.4,17.8-24.7,31.3-43.4,40.1c-2.9,1.4-6,2.3-8.8,3.7c-1.9,0.7-3.9,1.4-5.8,2
		c-1.4,0.4-2.8,0.8-4.2,1.1c-0.3-0.1-0.6-0.1-0.8,0.1c-2.2-1.4-3.9-3.3-5.5-5.3c-4.1-4.7-8.1-9.5-11.6-14.8
		c-4.2-6.3-7.9-12.9-11-19.9c-1.3-2.9-2.6-5.8-3.6-8.8c0-0.3,0-0.6-0.3-0.8c-0.5-1.4-0.9-2.8-1.4-4.2c0.2-0.4-0.2-0.4-0.3-0.6
		c0-0.4,0.1-0.8,0-1.1c-2.7-9-4-18.2-4.8-27.5c0-4.2-0.2-8.4,0-12.6c0.5-9.6,2.1-19.1,4.5-28.4c0.7-2.7,1.5-5.4,2.5-7.9
		c1.9-4.9,3.8-9.8,6.3-14.4c0-0.1,0-0.2,0-0.3c0.4-0.5,0.7-1.1,0.8-1.7l0.1,0c0,0,0-0.1,0-0.1c3-5.4,6.3-10.7,9.9-15.8
		c2-2.9,4.3-5.6,6.7-8.2c3.3-3.5,6.6-7,10.1-10.3c17.4-15.7,37.5-25.9,60.4-30.5c16.8-3.4,33.7-3.2,50.6,0.2
		c-0.7,0.7-1.6,0.9-2.4,1.3c-3.3,1.7-6.6,3.5-9.6,5.6c-1,0.7-2,1-3.3,0.8c-9.2-0.9-18.3-0.9-27.5,0.3c-20.2,2.5-38.3,10.1-54.1,23
		c-13,10.5-23.1,23.4-31.1,38.1c-0.1,0.2-0.2,0.4-0.2,0.7c-0.3,0.3-0.5,0.7-0.6,1.1c-0.1,0.3-0.3,0.5-0.4,0.8
		c-0.1,0.3-0.3,0.6-0.4,0.9c-0.4,0.5-0.7,1.1-0.9,1.7c-0.8,1.4-1.4,2.8-1.9,4.3c-0.3,0.3-0.5,0.7-0.5,1.1c-1.1,2.1-1.8,4.3-2.6,6.5
		c-0.2,0-0.2,0.1-0.2,0.3c-1.4,4-2.8,8.1-3.6,12.3c-2.3,10.5-3.2,21.1-2.3,31.9c0,2.1,0.2,4.2,0.6,6.3c0.1,0.9,0.1,1.9,0.4,2.8
		c0.4,3.9,1.1,7.7,2.3,11.4c0.1,0.3,0.1,0.5,0.2,0.8c1.8,7.5,4.5,14.6,7.9,21.4c3.8,7.7,8.3,14.8,13.7,21.5c3.2,4,6.7,7.8,10.3,11.4
		c0.6,0.6,1.1,0.8,1.9,0.2c1-0.7,2-1.4,3-2.1c3.8-2.6,7.6-5,10.9-8.2c0.6-0.5,1.3-1,1.9-1.6c9.5-9.1,17.1-19.7,23.2-31.3
		c4.8-9,8.1-18.6,10.3-28.6c0.1-0.3,0.1-0.6,0.2-0.9c0.4-0.9,0.5-1.8,0.6-2.8c1.6-7.2,2.6-14.4,3.6-21.7
		c2.3-15.8,5.1-31.6,10.2-46.8c4-12.1,9.3-23.4,17.4-33.4c9.6-11.9,21.8-19.9,36.2-24.8c9.1-3.1,18.5-4.9,28.1-5.7
		c0.2,0,0.4-0.1,0.5-0.1c0.3,0.1,0.6,0.1,0.9-0.1c1.7-0.1,3.4-0.1,5.1-0.2c0.7,0.1,1.3,0.1,2,0c3.5,0,7-0.1,10.4-0.1
		c0.8,0.3,1.7,0.2,2.6,0.1c2.7,0.2,5.5,0.3,8.2,0.5c0.5,0.2,0.9,0.3,1.4,0.2c1.7,0.3,3.4,0.4,5.1,0.5c5,0.6,10.1,1.2,15.1,1.8
		c3.8,0.5,7.7,1,11.5,1.5C279.8,29.5,280.1,29.5,280.4,29.5z"/>
	<path class="st1" d="M51.3,259.4c0.4,0,0.8,0,1.1-0.3c0.4,0,0.8,0,1.1-0.3c6.3-1.7,12.5-4,18.5-6.5c4.4-1.9,8.8-3.8,12.9-6.3
		c1.2-0.6,2.4-1.2,3.5-1.9c19.2-10.9,35.3-25.1,47.3-43.7c1.8-2.8,3.6-5.5,4.9-8.5c0.5-0.5,0.7-1.1,1-1.7c0.9-1.6,1.8-3.3,2.5-5.1
		c0.3-0.3,0.5-0.7,0.6-1.1c0.6-0.9,1-1.8,1.3-2.9c0.2-0.2,0.4-0.5,0.4-0.8c1.2-2.4,2.3-4.8,3.1-7.4c0.2-0.3,0.4-0.6,0.3-1
		c1.4-3,2.5-6,3.3-9.2c0.4-0.9,0.7-1.8,0.9-2.8c0.6-1.3,1-2.6,1.2-4c0.2-0.7,0.4-1.5,0.6-2.2c0.2-0.5,0.4-0.9,0.4-1.4
		c0.6-1.7,1-3.4,1.4-5.1c0.1-0.3,0.2-0.6,0.2-0.9c1.1-4.1,2.1-8.3,3.2-12.4c1.7-7,4.2-13.8,7.5-20.1c2.1-4,4.8-7.7,7.8-11.3
		c7.6-9.1,16.2-17.2,25.8-24.2c9.6-7.1,20.2-12.7,31.6-16.5c5.2-1.2,5.1-1.2,8.3,2.2c8,8.6,14.7,18,20.1,28.4
		c2.8,5.6,5.3,11.4,7.3,17.3c0.6,1.7,1.1,3.3,1.6,5c0,0.3,0,0.6,0.3,0.9c1.2,5,2.5,10.1,3.3,15.2c0.6,3.9,0.9,7.7,1.3,11.6
		c-0.1,0.4-0.1,0.7,0,1.1c0.3,5.1,0.1,10.2-0.2,15.3c-0.2,0.5-0.2,0.9-0.1,1.4c-0.3,1.3-0.5,2.6-0.3,3.9c-0.6,3.2-1.1,6.5-1.7,9.7
		c-3.1,15.7-9,30.4-17.7,43.8c-2.3,3.6-4.7,7.1-7.4,10.3c-5.2,6.4-10.9,12.3-17.3,17.6c-8.4,6.9-17.4,12.8-27.3,17.4
		c-7.7,3.7-15.8,6.4-24.1,8.5c-5.8,1.5-11.7,2.2-17.6,3.1c-2.7,0.2-5.5,0.3-8.2,0.5c-1-0.1-1.9-0.2-2.9,0.1c-0.8,0-1.7,0-2.5,0
		c-0.9-0.3-1.9-0.1-2.9-0.1c-6.3-0.2-12.6-1-18.8-1.9c-0.3,0-0.6-0.2-1-0.3c2.1-1.1,4.1-2.1,6.1-3.2c2.5-1.3,4.8-2.8,7.1-4.4
		c0.6-0.4,1.2-0.5,2-0.5c16.7,1.3,33-0.4,48.8-6c8.1-2.9,15.7-6.8,22.9-11.5c0.3-0.2,0.5-0.4,0.8-0.6c1-0.5,2-1.2,2.8-2
		c0.3-0.1,0.6-0.3,0.8-0.6c0.3,0,0.5-0.2,0.6-0.5c0.4-0.1,0.6-0.3,0.8-0.6c0.9-0.4,1.6-1,2.2-1.7c0.3-0.2,0.6-0.5,0.9-0.7
		c0.4-0.3,0.8-0.6,1.2-0.9c9.3-7.9,17.1-17.1,23.7-27.5c3.5-5.5,6.7-11.2,9.2-17.3c0.4-0.6,0.7-1.3,0.9-2c0.4-0.6,0.7-1.3,0.8-2
		c0.1-0.2,0.1-0.4,0.2-0.5c0.1-0.2,0.1-0.4,0.2-0.6c3-7,5.1-14.3,6.3-21.9c2.5-15.5,1.9-30.9-1.9-46.2c-0.1-0.2-0.2-0.4-0.3-0.6
		c0-0.3,0-0.6-0.2-0.9c-0.8-3.3-1.7-6.6-3.1-9.8c-0.2-0.6-0.3-1.2-0.7-1.6c0-0.2-0.1-0.3-0.1-0.5c-0.1-0.6-0.3-1.2-0.7-1.7
		c-0.1-0.5-0.3-1-0.6-1.4c-0.1-0.3-0.1-0.5-0.3-0.8c-3.2-7.4-7-14.4-11.7-20.9c-3.3-4.7-6.9-9.3-11-13.4c-0.1-0.1-0.2-0.2-0.3-0.2
		c-0.3-0.5-0.6-0.9-1.1-1.2c-1.6-1.9-2-2.1-3.6-1c-5.2,3.5-10.1,7.2-14.7,11.5c-9.3,8.8-16.9,18.9-22.9,30.3
		c-2.6,4.8-4.9,9.8-6.5,15c-0.6,1.2-1,2.4-1.2,3.7c-0.4,0.9-0.7,1.8-0.9,2.8c-0.2,0.4-0.3,0.9-0.5,1.3c-3.2,10.9-4.8,22.1-6.5,33.3
		c-1.4,9.4-2.9,18.9-5,28.2c-0.8,3.5-1.7,6.9-2.5,10.4c-0.4,1.2-0.8,2.5-1.1,3.7c-0.4,1.2-0.8,2.4-1.1,3.6c-0.5,0.9-0.8,1.9-0.9,2.9
		c-0.2,0.5-0.4,0.9-0.6,1.4c-1,2.9-2.1,5.7-3.2,8.5c-1.1,2.7-2.5,5.4-3.8,8c-1.2,2-2.4,4-3.7,6c-7.5,11.4-17.5,20.1-29.7,26.2
		c-11.7,5.9-24.2,9-37.1,10.5c-7.7,0.9-15.5,0.7-23.3,0.8c-21.3-1-42.3-4.7-63-9.6c0.5-0.6,1-0.4,1.5-0.4c16.5,0.4,32.6-1.7,48.5-6
		C50.7,259.7,51,259.6,51.3,259.4z"/>
</g>
</svg>
